{"title":"Takers.2010.720p.BRRip.x264.Feel-Free","uid":6051238,"size":2201144999,"categoryP":"video","categoryS":"hd___movies","magnet":"?xt=urn:btih:3f8b6644740c0ad44f4616e7eb87d3d3f3a730f5&amp;dn=Takers.2010.720p.BRRip.x264.Feel-Free&amp;tr=udp%3A%2F%2Ftracker.openbittorrent.com%3A80&amp;tr=udp%3A%2F%2Fopen.demonii.com%3A1337&amp;tr=udp%3A%2F%2Ftracker.coppersurfer.tk%3A6969&amp;tr=udp%3A%2F%2Fexodus.desync.com%3A6969","seeders":0,"leechers":0,"uploader":"hiest","files":-1,"time":1292740321,"description":"Genre:Action | Crime | Thriller\nLanguage:English\nIMDb:http://www.imdb.com/title/tt1135084/\nSource:BluRay.x264-METiS\nSubtitles:Romana\n\n\nFile size : 2.04 GiB\nDuration : 1h 47mn\nOverall bit rate : 2 734 Kbps\n\n\nVideo\nFormat settings, CABAC : Yes\nFormat settings, ReFrames : 4 frames\nCodec ID : V_MPEG4/ISO/AVC\nDuration : 1h 47mn\nBit rate : 2 295 Kbps\nNominal bit rate : 2 457 Kbps\nWidth : 1 280 pixels\nHeight : 536 pixels\nDisplay aspect ratio : 2.35:1\nFrame rate mode : Variable\nFrame rate : 23.976 fps\nColor space : YUV\nChroma subsampling : 4:2:0\nBit depth : 8 bits\nScan type : Progressive\nBits/(Pixel*Frame) : 0.140\nStream size : 1.72 GiB (84%)\nWriting library : x264\n\nAudio\nID : 2\nFormat : AC-3\nFormat/Info : Audio Coding 3\nMode extension : CM (complete main)\nCodec ID : A_AC3\nDuration : 1h 47mn\nBit rate mode : Constant\nBit rate : 384 Kbps\nChannel(s) : 6 channels\nChannel positions : Front: L C R, Side: L R, LFE\nSampling rate : 48.0 KHz\nBit depth : 16 bits\nVideo delay : -1mn 5s\nStream size : 294 MiB (14%)\nLanguage : English\n\n\nPlot\nA group of bank robbers find their $20 million plan interrupted by a hard-boiled detective\n\n\n\n\n\n\n\n================================== &lt;a href=&quot;\nhttp://thepiratebay.se/user/hiest&quot; rel=&quot;nofollow&quot; target=&quot;_NEW&quot;&gt;\nhttp://thepiratebay.se/user/hiest&lt;/a&gt;\n==================================\n\n\n\n\n\n\n\nScreenshots:\n &lt;a href=&quot;\nhttp://www.rapidhdd.com/images/188171vlcsnap-2010-12-19-07h12m23s132.png&quot; rel=&quot;nofollow&quot; target=&quot;_NEW&quot;&gt;\nhttp://www.rapidhdd.com/images/188171vlcsnap-2010-12-19-07h12m23s132.png&lt;/a&gt;\n &lt;a href=&quot;\nhttp://www.rapidhdd.com/images/228743vlcsnap-2010-12-19-07h12m52s149.png&quot; rel=&quot;nofollow&quot; target=&quot;_NEW&quot;&gt;\nhttp://www.rapidhdd.com/images/228743vlcsnap-2010-12-19-07h12m52s149.png&lt;/a&gt;\n &lt;a href=&quot;\nhttp://www.rapidhdd.com/images/512957vlcsnap-2010-12-19-07h13m57s43.png&quot; rel=&quot;nofollow&quot; target=&quot;_NEW&quot;&gt;\nhttp://www.rapidhdd.com/images/512957vlcsnap-2010-12-19-07h13m57s43.png&lt;/a&gt;\n &lt;a href=&quot;\nhttp://www.rapidhdd.com/images/797453vlcsnap-2010-12-19-07h14m28s109.png&quot; rel=&quot;nofollow&quot; target=&quot;_NEW&quot;&gt;\nhttp://www.rapidhdd.com/images/797453vlcsnap-2010-12-19-07h14m28s109.png&lt;/a&gt;\n &lt;a href=&quot;\nhttp://www.rapidhdd.com/images/114419vlcsnap-2010-12-19-07h14m42s246.png&quot; rel=&quot;nofollow&quot; target=&quot;_NEW&quot;&gt;\nhttp://www.rapidhdd.com/images/114419vlcsnap-2010-12-19-07h14m42s246.png&lt;/a&gt;","torrent":{"xt":"urn:btih:3f8b6644740c0ad44f4616e7eb87d3d3f3a730f5","amp;dn":"Takers.2010.720p.BRRip.x264.Feel-Free","amp;tr":["udp%3A%2F%2Ftracker.openbittorrent.com%3A80","udp%3A%2F%2Fopen.demonii.com%3A1337","udp%3A%2F%2Ftracker.coppersurfer.tk%3A6969","udp%3A%2F%2Fexodus.desync.com%3A6969"],"infoHash":"3f8b6644740c0ad44f4616e7eb87d3d3f3a730f5","infoHashBuffer":{"type":"Buffer","data":[63,139,102,68,116,12,10,212,79,70,22,231,235,135,211,211,243,167,48,245]},"announce":[],"urlList":[]}}